<svg id="64513317-22af-4932-bb89-cdf2fd428a9c" data-name="audio" xmlns="http://www.w3.org/2000/svg" viewBox="0 0 76 228"><defs><style>.\38 4561fef-b8ad-41d3-bcd4-4445e943e46c{fill:#fde052;}.\31 83149da-7c54-401b-956b-762434c587bb,.\34 0d70194-1dfc-47ee-a123-bed2544a29f8,.\34 2deeb75-f019-4ecf-b049-3bf8df7675ef,.\35 072b5f1-6c53-431c-8d96-146dc08bed32,.a3a2686b-22dd-4ba7-8a0c-4f3aae6b522c{fill:none;stroke-width:2px;}.\34 0d70194-1dfc-47ee-a123-bed2544a29f8{stroke:#282d33;}.\39 a32c9fd-cec9-4c31-ab5d-e60dd7db05b6{fill:#282d33;}.de0e4390-cf46-4877-ab47-fc5b41cb2462{fill:#2e2e2e;}.\35 072b5f1-6c53-431c-8d96-146dc08bed32,.a3a2686b-22dd-4ba7-8a0c-4f3aae6b522c{stroke:#fde052;}.\31 83149da-7c54-401b-956b-762434c587bb,.\34 2deeb75-f019-4ecf-b049-3bf8df7675ef{stroke:#2e2e2e;}.\34 2deeb75-f019-4ecf-b049-3bf8df7675ef,.a3a2686b-22dd-4ba7-8a0c-4f3aae6b522c{stroke-miterlimit:10;}</style></defs><title>fileformats_icon_sprite-01</title><circle class="84561fef-b8ad-41d3-bcd4-4445e943e46c" cx="19" cy="209" r="18"/><polyline class="40d70194-1dfc-47ee-a123-bed2544a29f8" points="16 217 16 204.18 25 200.25 25 213"/><path class="9a32c9fd-cec9-4c31-ab5d-e60dd7db05b6" d="M13,214a2,2,0,1,1-2,2,2,2,0,0,1,2-2m0-2a4,4,0,1,0,4,4,4,4,0,0,0-4-4h0Z"/><path class="de0e4390-cf46-4877-ab47-fc5b41cb2462" d="M22,210a2,2,0,1,1-2,2,2,2,0,0,1,2-2m0-2a4,4,0,1,0,4,4,4,4,0,0,0-4-4h0Z"/><circle class="de0e4390-cf46-4877-ab47-fc5b41cb2462" cx="57" cy="209" r="18"/><polyline class="5072b5f1-6c53-431c-8d96-146dc08bed32" points="54 217 54 204.18 63 200.25 63 213"/><path class="84561fef-b8ad-41d3-bcd4-4445e943e46c" d="M51,214a2,2,0,1,1-2,2,2,2,0,0,1,2-2m0-2a4,4,0,1,0,4,4,4,4,0,0,0-4-4h0Z"/><path class="84561fef-b8ad-41d3-bcd4-4445e943e46c" d="M60,210a2,2,0,1,1-2,2,2,2,0,0,1,2-2m0-2a4,4,0,1,0,4,4,4,4,0,0,0-4-4h0Z"/><circle class="84561fef-b8ad-41d3-bcd4-4445e943e46c" cx="19" cy="171" r="18"/><path class="42deeb75-f019-4ecf-b049-3bf8df7675ef" d="M23,171.69v-1.6A1.25,1.25,0,0,0,22,169H12a1.25,1.25,0,0,0-1,1.09v7a0.83,0.83,0,0,0,.75.9H22a1.15,1.15,0,0,0,1-1v-1.6l6,2.6v-9Z"/><circle class="42deeb75-f019-4ecf-b049-3bf8df7675ef" cx="20" cy="166" r="3"/><circle class="42deeb75-f019-4ecf-b049-3bf8df7675ef" cx="14" cy="166" r="3"/><circle class="de0e4390-cf46-4877-ab47-fc5b41cb2462" cx="57" cy="171" r="18"/><path class="a3a2686b-22dd-4ba7-8a0c-4f3aae6b522c" d="M61,171.69v-1.6A1.25,1.25,0,0,0,60,169H50a1.25,1.25,0,0,0-1,1.09v7a0.83,0.83,0,0,0,.75.9H60a1.15,1.15,0,0,0,1-1v-1.6l6,2.6v-9Z"/><circle class="a3a2686b-22dd-4ba7-8a0c-4f3aae6b522c" cx="58" cy="166" r="3"/><circle class="a3a2686b-22dd-4ba7-8a0c-4f3aae6b522c" cx="52" cy="166" r="3"/><circle class="84561fef-b8ad-41d3-bcd4-4445e943e46c" cx="19" cy="133" r="18"/><path class="de0e4390-cf46-4877-ab47-fc5b41cb2462" d="M29.26,127.25v1.12a0.55,0.55,0,0,1-.48.59l-0.21,0-0.54.1L24.34,141H22l-3-9.39-0.12-.39q-0.06-.21-0.12-0.45c0,0.16-.08.31-0.12,0.45l-0.12.39-3,9.39H13.21L9.51,129.1,9,129l-0.21,0a0.55,0.55,0,0,1-.48-0.59v-1.12h5.13v1.12a0.55,0.55,0,0,1-.48.59l-0.09,0-0.21.05-0.33.08,2,6.94q0.09,0.3.16,0.66t0.14,0.76q0.08-.4.17-0.76t0.19-.66l2.7-8.22a0.9,0.9,0,0,1,.3-0.4,0.84,0.84,0,0,1,.55-0.18h0.75a0.92,0.92,0,0,1,.55.16,0.81,0.81,0,0,1,.3.42l2.68,8.22a11,11,0,0,1,.36,1.35q0.06-.36.14-0.71t0.15-.64l2-6.92L24.6,129a0.55,0.55,0,0,1-.48-0.59v-1.12h5.13Z"/><circle class="de0e4390-cf46-4877-ab47-fc5b41cb2462" cx="57" cy="133" r="18"/><path class="84561fef-b8ad-41d3-bcd4-4445e943e46c" d="M67.26,127.25v1.12a0.55,0.55,0,0,1-.48.59l-0.21,0-0.54.1L62.34,141H60l-3-9.39-0.12-.39q-0.06-.21-0.12-0.45c0,0.16-.08.31-0.12,0.45l-0.12.39-3,9.39H51.21l-3.69-11.9L47,129l-0.21,0a0.55,0.55,0,0,1-.48-0.59v-1.12h5.13v1.12a0.55,0.55,0,0,1-.48.59l-0.09,0-0.21.05-0.33.08,2,6.94q0.09,0.3.16,0.66t0.14,0.76q0.08-.4.17-0.76t0.19-.66l2.7-8.22a0.9,0.9,0,0,1,.3-0.4,0.84,0.84,0,0,1,.55-0.18h0.75a0.92,0.92,0,0,1,.55.16,0.81,0.81,0,0,1,.3.42l2.68,8.22a11,11,0,0,1,.36,1.35q0.06-.36.14-0.71t0.15-.64l2-6.92L62.6,129a0.55,0.55,0,0,1-.48-0.59v-1.12h5.13Z"/><circle class="84561fef-b8ad-41d3-bcd4-4445e943e46c" cx="19" cy="95" r="18"/><circle class="de0e4390-cf46-4877-ab47-fc5b41cb2462" cx="57" cy="95" r="18"/><path class="9a32c9fd-cec9-4c31-ab5d-e60dd7db05b6" d="M28.21,98.9a9.93,9.93,0,0,0,.7-2.56h0c0-.14,0-0.27,0-0.41s0-.11,0-0.17,0-.19,0-0.28,0-.31,0-0.47,0-.32,0-0.47,0-.19,0-0.28,0-.11,0-0.17,0-.27,0-0.41h0a9.92,9.92,0,0,0-.7-2.56l0,0h0A10,10,0,0,0,19,85H18.34v0a10,10,0,0,0-8.52,6h0l0,0.06a9.92,9.92,0,0,0-.69,2.54v0c0,0.13,0,.26,0,0.39s0,0.12,0,.18,0,0.18,0,.27S9,94.84,9,95s0,0.32,0,.47,0,0.18,0,.27,0,0.12,0,.18,0,0.26,0,.39v0a9.92,9.92,0,0,0,.67,2.47l0,0.13h0a10,10,0,0,0,8.52,6v0H19a10,10,0,0,0,9.18-6h0Zm-1.63.31-0.11.19-0.1.16-0.12.19-0.1.15-0.13.18-0.11.15-0.14.18-0.11.14-0.15.17-0.12.13-0.16.17-0.12.12-0.17.17-0.12.11-0.19.16-0.12.1-0.21.17-0.11.08-0.28.2-0.05,0-0.35.22-0.07,0-0.29.17-0.13.07-0.16.08A10.92,10.92,0,0,0,24.59,99h2.13l0,0.1ZM10.36,95.71V95.61c0-.2,0-0.41,0-0.61s0-.41,0-0.61V94.29a8.66,8.66,0,0,1,.38-1.92h2.4a17,17,0,0,0,0,5.26h-2.4A8.68,8.68,0,0,1,10.36,95.71Zm3.9-.71a14.85,14.85,0,0,1,.23-2.63h3.84v5.26H14.49A14.84,14.84,0,0,1,14.26,95Zm8.88-7.62,0.31,0.18,0,0,0.35,0.22,0,0L24.18,88l0.1,0.08L24.5,88.3l0.11,0.1,0.2,0.17,0.12,0.11,0.18,0.17L25.22,89l0.16,0.17,0.12,0.13,0.15,0.18,0.11,0.14,0.14,0.18L26,89.9l0.13,0.19,0.1,0.15,0.12,0.19,0.1,0.16,0.11,0.2,0.09,0.16,0,0.1H24.59a10.92,10.92,0,0,0-1.73-3.81L23,87.32ZM23.74,95a14.86,14.86,0,0,1-.23,2.63H19.66V92.37H23.5A14.85,14.85,0,0,1,23.74,95ZM23.2,99c-0.7,2.43-2,4.22-3.53,4.63V99H23.2ZM19.66,91V86.42c1.52,0.41,2.83,2.2,3.53,4.63H19.66Zm-1.32-4.63V91H14.8C15.5,88.62,16.82,86.82,18.34,86.42Zm0,12.54v4.63c-1.52-.41-2.84-2.2-3.54-4.63h3.54Zm9.31-3.34V95.7a8.64,8.64,0,0,1-.39,1.92h-2.4a17,17,0,0,0,0-5.26h2.4a8.65,8.65,0,0,1,.39,1.92v0.09c0,0.2,0,.41,0,0.62S27.67,95.41,27.65,95.62ZM15.14,87.24A10.92,10.92,0,0,0,13.41,91H11.28A8.73,8.73,0,0,1,15.14,87.24ZM11.28,99h2.13a10.92,10.92,0,0,0,1.73,3.81A8.73,8.73,0,0,1,11.28,99Z"/><path class="84561fef-b8ad-41d3-bcd4-4445e943e46c" d="M66.21,98.9a9.93,9.93,0,0,0,.7-2.56h0c0-.14,0-0.27,0-0.41s0-.11,0-0.17,0-.19,0-0.28,0-.31,0-0.47,0-.32,0-0.47,0-.19,0-0.28,0-.11,0-0.17,0-.27,0-0.41h0a9.92,9.92,0,0,0-.7-2.56l0,0h0A10,10,0,0,0,57,85H56.34v0a10,10,0,0,0-8.52,6h0l0,0.06a9.92,9.92,0,0,0-.69,2.54v0c0,0.13,0,.26,0,0.39s0,0.12,0,.18,0,0.18,0,.27,0,0.32,0,.47,0,0.32,0,.47,0,0.18,0,.27,0,0.12,0,.18,0,0.26,0,.39v0a9.92,9.92,0,0,0,.67,2.47l0,0.13h0a10,10,0,0,0,8.52,6v0H57a10,10,0,0,0,9.18-6h0Zm-1.63.31-0.11.19-0.1.16-0.12.19-0.1.15-0.13.18-0.11.15-0.14.18-0.11.14-0.15.17-0.12.13-0.16.17-0.12.12-0.17.17-0.12.11-0.19.16-0.12.1-0.21.17-0.11.08-0.28.2-0.05,0-0.35.22-0.07,0-0.29.17-0.13.07-0.16.08A10.92,10.92,0,0,0,62.59,99h2.13l0,0.1ZM48.36,95.71V95.61c0-.2,0-0.41,0-0.61s0-.41,0-0.61V94.29a8.66,8.66,0,0,1,.38-1.92h2.4a17,17,0,0,0,0,5.26h-2.4A8.68,8.68,0,0,1,48.36,95.71Zm3.9-.71a14.85,14.85,0,0,1,.23-2.63h3.84v5.26H52.49A14.84,14.84,0,0,1,52.26,95Zm8.88-7.62,0.31,0.18,0,0,0.35,0.22,0,0L62.18,88l0.1,0.08L62.5,88.3l0.11,0.1,0.2,0.17,0.12,0.11,0.18,0.17L63.22,89l0.16,0.17,0.12,0.13,0.15,0.18,0.11,0.14,0.14,0.18L64,89.9l0.13,0.19,0.1,0.15,0.12,0.19,0.1,0.16,0.11,0.2,0.09,0.16,0,0.1H62.59a10.92,10.92,0,0,0-1.73-3.81L61,87.32ZM61.74,95a14.86,14.86,0,0,1-.23,2.63H57.66V92.37H61.5A14.85,14.85,0,0,1,61.74,95ZM61.2,99c-0.7,2.43-2,4.22-3.53,4.63V99H61.2ZM57.66,91V86.42c1.52,0.41,2.83,2.2,3.53,4.63H57.66Zm-1.32-4.63V91H52.8C53.5,88.62,54.82,86.82,56.34,86.42Zm0,12.54v4.63c-1.52-.41-2.84-2.2-3.54-4.63h3.54Zm9.31-3.34V95.7a8.64,8.64,0,0,1-.39,1.92h-2.4a17,17,0,0,0,0-5.26h2.4a8.65,8.65,0,0,1,.39,1.92v0.09c0,0.2,0,.41,0,0.62S65.67,95.41,65.65,95.62ZM53.14,87.24A10.92,10.92,0,0,0,51.41,91H49.28A8.73,8.73,0,0,1,53.14,87.24ZM49.28,99h2.13a10.92,10.92,0,0,0,1.73,3.81A8.73,8.73,0,0,1,49.28,99Z"/><circle class="84561fef-b8ad-41d3-bcd4-4445e943e46c" cx="19" cy="57" r="18"/><polygon class="de0e4390-cf46-4877-ab47-fc5b41cb2462" points="23.59 46 10 46 10 69 28 69 28 50 23.59 46"/><path class="de0e4390-cf46-4877-ab47-fc5b41cb2462" d="M15.8,56.06a2,2,0,0,1-.14.77,1.59,1.59,0,0,1-.42.6,2,2,0,0,1-.7.39,3.11,3.11,0,0,1-1,.14H12.84v1.24l0.24,0,0.12,0h0a0.23,0.23,0,0,1,.2.25V60H11.16V59.53a0.23,0.23,0,0,1,.2-0.25h0.05l0.12,0,0.24,0V55l-0.24,0-0.12,0H11.36a0.23,0.23,0,0,1-.2-0.25V54.22h2.39a3.31,3.31,0,0,1,1,.14,1.93,1.93,0,0,1,.7.38,1.49,1.49,0,0,1,.41.58A2,2,0,0,1,15.8,56.06Zm-1.08,0a1.16,1.16,0,0,0-.07-0.42,0.82,0.82,0,0,0-.22-0.32,1,1,0,0,0-.36-0.2,1.71,1.71,0,0,0-.52-0.07H12.84v2.07h0.71a1.62,1.62,0,0,0,.52-0.07,1,1,0,0,0,.36-0.21,0.86,0.86,0,0,0,.22-0.34A1.28,1.28,0,0,0,14.72,56.06Z"/><path class="de0e4390-cf46-4877-ab47-fc5b41cb2462" d="M21.73,57.11a3.13,3.13,0,0,1-.21,1.17A2.62,2.62,0,0,1,20,59.79a3.25,3.25,0,0,1-1.2.21H16.08V59.53a0.23,0.23,0,0,1,.2-0.25h0.05l0.12,0,0.24,0V55l-0.24,0-0.12,0H16.28a0.23,0.23,0,0,1-.2-0.25V54.22h2.73a3.22,3.22,0,0,1,1.2.21,2.7,2.7,0,0,1,.92.6,2.66,2.66,0,0,1,.6.91A3.13,3.13,0,0,1,21.73,57.11Zm-1.1,0a2.65,2.65,0,0,0-.13-0.85,1.82,1.82,0,0,0-.36-0.64,1.57,1.57,0,0,0-.57-0.4,2,2,0,0,0-.76-0.14h-1v4.07h1A2,2,0,0,0,19.57,59a1.57,1.57,0,0,0,.57-0.4A1.81,1.81,0,0,0,20.5,58,2.65,2.65,0,0,0,20.63,57.11Z"/><path class="de0e4390-cf46-4877-ab47-fc5b41cb2462" d="M26.47,54.22v1.52H26a0.17,0.17,0,0,1-.19-0.15c0-.06,0-0.23-0.06-0.51H23.71v1.71h2v0.86h-2v1.56l0.24,0,0.12,0h0.05a0.23,0.23,0,0,1,.2.25V60H22V59.53a0.23,0.23,0,0,1,.2-0.25h0.05l0.12,0,0.24,0V55l-0.24,0-0.12,0H22.22a0.23,0.23,0,0,1-.2-0.25V54.22h4.45Z"/><path class="84561fef-b8ad-41d3-bcd4-4445e943e46c" d="M15.8,56.06a2,2,0,0,1-.14.77,1.59,1.59,0,0,1-.42.6,2,2,0,0,1-.7.39,3.11,3.11,0,0,1-1,.14H12.84v1.24l0.24,0,0.12,0h0a0.23,0.23,0,0,1,.2.25V60H11.16V59.53a0.23,0.23,0,0,1,.2-0.25h0.05l0.12,0,0.24,0V55l-0.24,0-0.12,0H11.36a0.23,0.23,0,0,1-.2-0.25V54.22h2.39a3.31,3.31,0,0,1,1,.14,1.93,1.93,0,0,1,.7.38,1.49,1.49,0,0,1,.41.58A2,2,0,0,1,15.8,56.06Zm-1.08,0a1.16,1.16,0,0,0-.07-0.42,0.82,0.82,0,0,0-.22-0.32,1,1,0,0,0-.36-0.2,1.71,1.71,0,0,0-.52-0.07H12.84v2.07h0.71a1.62,1.62,0,0,0,.52-0.07,1,1,0,0,0,.36-0.21,0.86,0.86,0,0,0,.22-0.34A1.28,1.28,0,0,0,14.72,56.06Z"/><path class="84561fef-b8ad-41d3-bcd4-4445e943e46c" d="M21.73,57.11a3.13,3.13,0,0,1-.21,1.17A2.62,2.62,0,0,1,20,59.79a3.25,3.25,0,0,1-1.2.21H16.08V59.53a0.23,0.23,0,0,1,.2-0.25h0.05l0.12,0,0.24,0V55l-0.24,0-0.12,0H16.28a0.23,0.23,0,0,1-.2-0.25V54.22h2.73a3.22,3.22,0,0,1,1.2.21,2.7,2.7,0,0,1,.92.6,2.66,2.66,0,0,1,.6.91A3.13,3.13,0,0,1,21.73,57.11Zm-1.1,0a2.65,2.65,0,0,0-.13-0.85,1.82,1.82,0,0,0-.36-0.64,1.57,1.57,0,0,0-.57-0.4,2,2,0,0,0-.76-0.14h-1v4.07h1A2,2,0,0,0,19.57,59a1.57,1.57,0,0,0,.57-0.4A1.81,1.81,0,0,0,20.5,58,2.65,2.65,0,0,0,20.63,57.11Z"/><path class="84561fef-b8ad-41d3-bcd4-4445e943e46c" d="M26.47,54.22v1.52H26a0.17,0.17,0,0,1-.19-0.15c0-.06,0-0.23-0.06-0.51H23.71v1.71h2v0.86h-2v1.56l0.24,0,0.12,0h0.05a0.23,0.23,0,0,1,.2.25V60H22V59.53a0.23,0.23,0,0,1,.2-0.25h0.05l0.12,0,0.24,0V55l-0.24,0-0.12,0H22.22a0.23,0.23,0,0,1-.2-0.25V54.22h4.45Z"/><circle class="de0e4390-cf46-4877-ab47-fc5b41cb2462" cx="57" cy="57" r="18"/><polygon class="84561fef-b8ad-41d3-bcd4-4445e943e46c" points="61.59 46 48 46 48 69 66 69 66 50 61.59 46"/><path class="de0e4390-cf46-4877-ab47-fc5b41cb2462" d="M53.8,56.06a2,2,0,0,1-.14.77,1.59,1.59,0,0,1-.42.6,2,2,0,0,1-.7.39,3.11,3.11,0,0,1-1,.14H50.84v1.24l0.24,0,0.12,0h0a0.23,0.23,0,0,1,.2.25V60H49.16V59.53a0.23,0.23,0,0,1,.2-0.25h0.05l0.12,0,0.24,0V55l-0.24,0-0.12,0H49.36a0.23,0.23,0,0,1-.2-0.25V54.22h2.39a3.31,3.31,0,0,1,1,.14,1.93,1.93,0,0,1,.7.38,1.49,1.49,0,0,1,.41.58A2,2,0,0,1,53.8,56.06Zm-1.08,0a1.16,1.16,0,0,0-.07-0.42,0.82,0.82,0,0,0-.22-0.32,1,1,0,0,0-.36-0.2,1.71,1.71,0,0,0-.52-0.07H50.84v2.07h0.71a1.62,1.62,0,0,0,.52-0.07,1,1,0,0,0,.36-0.21,0.86,0.86,0,0,0,.22-0.34A1.28,1.28,0,0,0,52.72,56.06Z"/><path class="de0e4390-cf46-4877-ab47-fc5b41cb2462" d="M59.73,57.11a3.13,3.13,0,0,1-.21,1.17A2.62,2.62,0,0,1,58,59.79a3.25,3.25,0,0,1-1.2.21H54.08V59.53a0.23,0.23,0,0,1,.2-0.25h0.05l0.12,0,0.24,0V55l-0.24,0-0.12,0H54.28a0.23,0.23,0,0,1-.2-0.25V54.22h2.73a3.22,3.22,0,0,1,1.2.21,2.7,2.7,0,0,1,.92.6,2.66,2.66,0,0,1,.6.91A3.13,3.13,0,0,1,59.73,57.11Zm-1.1,0a2.65,2.65,0,0,0-.13-0.85,1.82,1.82,0,0,0-.36-0.64,1.57,1.57,0,0,0-.57-0.4,2,2,0,0,0-.76-0.14h-1v4.07h1A2,2,0,0,0,57.57,59a1.57,1.57,0,0,0,.57-0.4A1.81,1.81,0,0,0,58.5,58,2.65,2.65,0,0,0,58.63,57.11Z"/><path class="de0e4390-cf46-4877-ab47-fc5b41cb2462" d="M64.47,54.22v1.52H64a0.17,0.17,0,0,1-.19-0.15c0-.06,0-0.23-0.06-0.51H61.71v1.71h2v0.86h-2v1.56l0.24,0,0.12,0h0.05a0.23,0.23,0,0,1,.2.25V60H60V59.53a0.23,0.23,0,0,1,.2-0.25h0.05l0.12,0,0.24,0V55l-0.24,0-0.12,0H60.22a0.23,0.23,0,0,1-.2-0.25V54.22h4.45Z"/><path class="de0e4390-cf46-4877-ab47-fc5b41cb2462" d="M53.8,56.06a2,2,0,0,1-.14.77,1.59,1.59,0,0,1-.42.6,2,2,0,0,1-.7.39,3.11,3.11,0,0,1-1,.14H50.84v1.24l0.24,0,0.12,0h0a0.23,0.23,0,0,1,.2.25V60H49.16V59.53a0.23,0.23,0,0,1,.2-0.25h0.05l0.12,0,0.24,0V55l-0.24,0-0.12,0H49.36a0.23,0.23,0,0,1-.2-0.25V54.22h2.39a3.31,3.31,0,0,1,1,.14,1.93,1.93,0,0,1,.7.38,1.49,1.49,0,0,1,.41.58A2,2,0,0,1,53.8,56.06Zm-1.08,0a1.16,1.16,0,0,0-.07-0.42,0.82,0.82,0,0,0-.22-0.32,1,1,0,0,0-.36-0.2,1.71,1.71,0,0,0-.52-0.07H50.84v2.07h0.71a1.62,1.62,0,0,0,.52-0.07,1,1,0,0,0,.36-0.21,0.86,0.86,0,0,0,.22-0.34A1.28,1.28,0,0,0,52.72,56.06Z"/><path class="de0e4390-cf46-4877-ab47-fc5b41cb2462" d="M59.73,57.11a3.13,3.13,0,0,1-.21,1.17A2.62,2.62,0,0,1,58,59.79a3.25,3.25,0,0,1-1.2.21H54.08V59.53a0.23,0.23,0,0,1,.2-0.25h0.05l0.12,0,0.24,0V55l-0.24,0-0.12,0H54.28a0.23,0.23,0,0,1-.2-0.25V54.22h2.73a3.22,3.22,0,0,1,1.2.21,2.7,2.7,0,0,1,.92.6,2.66,2.66,0,0,1,.6.91A3.13,3.13,0,0,1,59.73,57.11Zm-1.1,0a2.65,2.65,0,0,0-.13-0.85,1.82,1.82,0,0,0-.36-0.64,1.57,1.57,0,0,0-.57-0.4,2,2,0,0,0-.76-0.14h-1v4.07h1A2,2,0,0,0,57.57,59a1.57,1.57,0,0,0,.57-0.4A1.81,1.81,0,0,0,58.5,58,2.65,2.65,0,0,0,58.63,57.11Z"/><path class="de0e4390-cf46-4877-ab47-fc5b41cb2462" d="M64.47,54.22v1.52H64a0.17,0.17,0,0,1-.19-0.15c0-.06,0-0.23-0.06-0.51H61.71v1.71h2v0.86h-2v1.56l0.24,0,0.12,0h0.05a0.23,0.23,0,0,1,.2.25V60H60V59.53a0.23,0.23,0,0,1,.2-0.25h0.05l0.12,0,0.24,0V55l-0.24,0-0.12,0H60.22a0.23,0.23,0,0,1-.2-0.25V54.22h4.45Z"/><circle class="de0e4390-cf46-4877-ab47-fc5b41cb2462" cx="57" cy="19" r="18"/><circle class="84561fef-b8ad-41d3-bcd4-4445e943e46c" cx="19" cy="19" r="18"/><line class="5072b5f1-6c53-431c-8d96-146dc08bed32" x1="66" y1="22" x2="49" y2="22"/><rect class="5072b5f1-6c53-431c-8d96-146dc08bed32" x="49" y="12" width="17" height="15"/><line class="5072b5f1-6c53-431c-8d96-146dc08bed32" x1="54" y1="12" x2="54" y2="28"/><line class="5072b5f1-6c53-431c-8d96-146dc08bed32" x1="66" y1="17" x2="49" y2="17"/><line class="183149da-7c54-401b-956b-762434c587bb" x1="28" y1="22" x2="11" y2="22"/><line class="183149da-7c54-401b-956b-762434c587bb" x1="28" y1="17" x2="11" y2="17"/><line class="183149da-7c54-401b-956b-762434c587bb" x1="16" y1="12" x2="16" y2="28"/><rect class="183149da-7c54-401b-956b-762434c587bb" x="11" y="12" width="17" height="15"/></svg>