<svg class="svg-icon" width="24" height="24" aria-hidden="true" xmlns="http://www.w3.org/2000/svg">
  <path d="M18.168 10.633c.307 2.122.625 4.317 2.083 5.8.295.3.38.74.213 1.123a1.06 1.06 0 01-.973.63h-4.494c-.024 1.835-1.554 3.32-3.433 3.32-1.88 0-3.41-1.485-3.433-3.32H3.702c-.423 0-.806-.247-.972-.628a1.019 1.019 0 01.207-1.122c1.446-1.484 1.76-3.68 2.066-5.802.452-3.144.96-6.678 5.503-7.144 0 0 .534-.09 1.057-.09.523 0 1.057.09 1.057.09 4.58.462 5.093 3.997 5.548 7.143zm-6.605 8.804c.713 0 1.293-.558 1.316-1.25h-2.634c.024.692.603 1.25 1.317 1.25zm0-3.32h5.893c-.867-1.644-1.135-3.5-1.38-5.193-.53-3.66-.943-5.417-4.513-5.417-3.532 0-3.94 1.758-4.466 5.415-.244 1.694-.51 3.55-1.37 5.194h5.836z" fill="#30c0d8"/>
  <circle cx="16.567" cy="5.615" r="2.835" fill="#C01212"/>
</svg>
